<?xml version="1.0" encoding="UTF-8" standalone="no"?>
<!DOCTYPE svg PUBLIC "-//W3C//DTD SVG 1.1//EN" "http://www.w3.org/Graphics/SVG/1.1/DTD/svg11.dtd">
<svg width="100%" height="100%" viewBox="0 0 1024 1024" version="1.1" xmlns="http://www.w3.org/2000/svg" xmlns:xlink="http://www.w3.org/1999/xlink" xml:space="preserve" xmlns:serif="http://www.serif.com/" style="fill-rule:evenodd;clip-rule:evenodd;stroke-linejoin:round;stroke-miterlimit:2;">
    <g>
        <g>
            <g transform="matrix(2.74671,0,0,2.74671,-902.801,-148.175)">
                <path d="M493,1085C493,1085 492.603,531.5 492.5,392C492.478,362.689 455.998,316.603 455.998,280C455.998,258.397 464.727,258.329 465,238C465.395,208.601 436.333,165.5 444,136C450.3,111.758 482.333,97.848 514,98C547.667,98.161 580.999,114.391 586.42,138.205C592.605,165.376 569.445,209.168 569,238C568.678,258.827 577,257.942 577,280C577,309.058 534.043,359.352 534,392C533.833,519.762 534,1084.5 534,1084.5L493,1085Z" style="fill:rgb(143,143,143);fill-opacity:0.73;"/>
            </g>
            <g transform="matrix(2.74671,0,0,2.74671,-902.801,-148.175)">
                <path d="M493,1085C493,1085 492.603,531.5 492.5,392C492.478,362.689 455.998,316.603 455.998,280C455.998,258.397 464.727,258.329 465,238C465.395,208.601 436.333,165.5 444,136C450.3,111.758 482.333,97.848 514,98C547.667,98.161 580.999,114.391 586.42,138.205C592.605,165.376 569.445,209.168 569,238C568.678,258.827 577,257.942 577,280C577,309.058 534.043,359.352 534,392C533.833,519.762 534,1084.5 534,1084.5L493,1085Z" style="fill:rgb(143,143,143);fill-opacity:0.73;"/>
            </g>
        </g>
        <g>
            <g transform="matrix(2.74671,0,0,2.74671,-902.801,-148.175)">
                <path d="M493,1085C493,1085 492.603,531.5 492.5,392C492.478,362.689 455.998,316.603 455.998,280C455.998,258.397 464.727,258.329 465,238C465.395,208.601 436.333,165.5 444,136C450.3,111.758 482.333,97.848 514,98C547.667,98.161 580.999,114.391 586.42,138.205C592.605,165.376 569.445,209.168 569,238C568.678,258.827 577,257.942 577,280C577,309.058 534.043,359.352 534,392C533.833,519.762 534,1084.5 534,1084.5L493,1085Z" style="fill:rgb(143,143,143);fill-opacity:0.73;"/>
            </g>
            <g transform="matrix(2.74671,0,0,2.74671,-902.801,-148.175)">
                <path d="M493,1085C493,1085 492.603,531.5 492.5,392C492.478,362.689 455.998,316.603 455.998,280C455.998,258.397 464.727,258.329 465,238C465.395,208.601 436.333,165.5 444,136C450.3,111.758 482.333,97.848 514,98C547.667,98.161 580.999,114.391 586.42,138.205C592.605,165.376 569.445,209.168 569,238C568.678,258.827 577,257.942 577,280C577,309.058 534.043,359.352 534,392C533.833,519.762 534,1084.5 534,1084.5L493,1085Z" style="fill:rgb(143,143,143);fill-opacity:0.73;"/>
            </g>
        </g>
    </g>
</svg>
