<?xml version="1.0" encoding="UTF-8" standalone="no"?>
<!DOCTYPE svg PUBLIC "-//W3C//DTD SVG 1.1//EN" "http://www.w3.org/Graphics/SVG/1.1/DTD/svg11.dtd">
<svg width="100%" height="100%" viewBox="0 0 1024 1024" version="1.1" xmlns="http://www.w3.org/2000/svg" xmlns:xlink="http://www.w3.org/1999/xlink" xml:space="preserve" xmlns:serif="http://www.serif.com/" style="fill-rule:evenodd;clip-rule:evenodd;stroke-linejoin:round;stroke-miterlimit:2;">
    <g transform="matrix(2.74988,0,0,2.74988,-974.169,-155.247)">
        <path d="M540,371L554,337C554,337 578.225,334.958 580,314C568.351,313.475 557.833,314.333 551.5,309C545.167,303.667 539.499,258.957 565,259C578.504,259.023 583.889,268.593 583.563,277.459C583.203,287.279 578.567,290.399 569,296C583.394,299.874 595.062,288.375 595,280C594.833,257.667 571.314,250.667 562,238C549.5,221 550.333,204.833 548,190C545.763,175.78 546.359,148.346 551.859,139.846C557.307,131.427 564.424,128.523 579.791,131.135C591.194,133.073 591.597,151.874 585.543,159.535C577.195,170.099 568.168,170.954 553.305,161.766C549.566,183.417 578,190 578,190C578,190 563.416,208.935 586,238C591.906,188.996 608.389,168.201 607,148C605.924,132.362 585.09,95.946 540,129C502.598,98.377 476.213,124.016 476,148C475.793,171.367 491.308,172.54 500,238C510.922,218.893 512.295,205.938 507,190C523.333,181 530,162 530,162C530,162 508.564,169.515 499.414,159.434C491.701,150.935 495.064,134.105 505.145,130.73C520.584,125.562 525.992,131.982 530.945,140.004C536.399,148.837 536.388,173.676 534.722,190C533.055,206.333 531.101,213.997 518.814,237.164C511.685,250.607 489.787,257.786 489.329,278.357C488.968,294.574 508.796,300.978 520,296C510.502,291.503 501.709,289.438 501.556,278.927C501.388,267.396 504.483,259.067 522,259C539.457,258.933 536.264,304.308 530,309C523.546,313.833 518.387,312.917 501,314C506.868,337.961 526.722,337 526.722,337L540,371Z" style="fill:rgb(201,201,201);"/>
    </g>
</svg>
